<?xml version="1.0" standalone="no"?>
<!DOCTYPE svg PUBLIC "-//W3C//DTD SVG 20010904//EN"
 "http://www.w3.org/TR/2001/REC-SVG-20010904/DTD/svg10.dtd">
<svg version="1.0" xmlns="http://www.w3.org/2000/svg"
 width="219.000000pt" height="219.000000pt" viewBox="0 0 219.000000 219.000000"
 preserveAspectRatio="xMidYMid meet">
<metadata>
Created by potrace 1.14, written by Peter Selinger 2001-2017
</metadata>
<g transform="translate(0.000000,219.000000) scale(0.100000,-0.100000)"
fill="#000000" stroke="none">
<path d="M380 2182 c-7 -3 -10 -359 -10 -1088 l0 -1084 28 -1 c35 -1 1394 -1
1405 0 4 1 7 489 7 1086 0 597 -3 1086 -7 1086 -19 3 -1414 4 -1423 1z m1370
-156 c2 -386 -2 -641 -10 -646 -6 -3 -51 -6 -102 -5 l-93 1 -3 137 -3 138 35
33 c43 40 57 75 58 142 1 66 -16 114 -50 147 -74 71 -177 8 -189 -116 -7 -73
11 -130 53 -171 l35 -34 -3 -138 -3 -138 -105 -1 -105 0 -3 138 -3 138 31 29
c89 84 77 265 -22 313 -33 16 -40 16 -71 4 -54 -23 -79 -68 -85 -151 -4 -60
-1 -79 17 -114 12 -23 32 -49 46 -58 25 -16 25 -18 25 -158 l0 -141 -107 1
c-60 1 -110 2 -113 3 -3 1 -5 65 -5 143 1 111 4 143 15 146 47 16 86 109 78
185 -23 206 -228 196 -243 -11 -4 -57 21 -123 58 -159 l34 -31 0 -139 0 -138
-111 0 -111 0 -2 141 c-1 138 -1 142 22 154 86 46 93 252 9 313 -22 17 -46 22
-86 18 -23 -2 -70 -55 -84 -95 -19 -53 -10 -148 18 -190 13 -19 32 -39 43 -44
18 -8 19 -19 20 -150 0 -88 -4 -142 -10 -143 -28 -4 -172 -5 -185 -2 -13 4
-15 53 -14 376 1 205 2 373 3 373 1 1 298 2 661 2 l660 -1 0 -101z m-1034
-128 c35 -68 -4 -195 -56 -181 -60 16 -76 152 -24 208 20 21 27 24 44 15 11
-6 27 -25 36 -42z m263 30 c45 -48 43 -155 -4 -196 -52 -44 -94 20 -86 135 1
22 46 83 61 83 5 0 18 -10 29 -22z m295 -23 c31 -65 19 -156 -24 -183 -29 -17
-56 3 -73 53 -22 67 -4 150 37 165 30 11 42 3 60 -35z m259 33 c42 -32 54
-126 24 -184 -34 -66 -95 -36 -104 50 -7 55 0 85 28 119 23 31 29 32 52 15z
m215 -1247 l-3 -626 -655 0 -655 0 -3 626 -2 626 660 0 660 0 -2 -626z"/>
<path d="M949 981 c-127 -127 -149 -161 -112 -175 12 -5 44 21 120 98 l103
105 0 -44 c0 -44 -3 -48 -120 -167 -116 -119 -137 -152 -104 -165 11 -4 47 25
120 98 l104 104 0 -45 c0 -45 -2 -47 -120 -165 -85 -85 -120 -126 -118 -140 6
-42 36 -25 137 77 l101 103 0 -198 c0 -167 2 -199 15 -203 8 -4 22 -1 30 6 12
10 14 46 13 196 0 102 1 186 4 189 2 2 48 -41 102 -96 98 -99 128 -116 134
-74 2 14 -34 56 -120 143 -122 121 -123 123 -120 163 l4 41 103 -101 c73 -72
107 -100 119 -95 32 12 14 41 -103 159 -108 110 -119 124 -122 163 -3 23 -2
42 2 42 3 0 48 -43 100 -95 64 -66 100 -95 116 -95 48 0 24 39 -105 170 -70
71 -134 130 -141 130 -8 0 -72 -58 -142 -129z"/>
</g>
</svg>
